<svg width="14" height="16" viewBox="0 0 14 16" fill="none" xmlns="http://www.w3.org/2000/svg">
<g id="Group">
<g id="Group_2">
<g id="Group_3">
<path id="Vector" d="M3.37502 9.70093H2.70752V10.6964H3.37502C3.64302 10.6964 3.85502 10.4604 3.85502 10.2124C3.85452 9.93293 3.64302 9.70093 3.37502 9.70093Z" fill="#E29447"/>
<path id="Vector_2" d="M6.06145 9.72107H5.39795V11.5121H6.06145C7.14095 11.5121 7.18845 9.72107 6.06145 9.72107Z" fill="#E29447"/>
<path id="Vector_3" d="M11.5 7.5H0.5C0.225 7.5 0 7.725 0 8V13C0 13.275 0.225 13.5 0.5 13.5H11.5C11.7755 13.5 12 13.275 12 13V8C12 7.725 11.7755 7.5 11.5 7.5ZM3.375 11.1965H2.7075V11.7245C2.7075 11.9005 2.5955 12 2.4515 12C2.3195 12 2.18 11.9005 2.18 11.724V9.4735C2.18 9.3415 2.284 9.197 2.4515 9.197H3.375C3.895 9.197 4.363 9.545 4.363 10.2125C4.3625 10.8445 3.895 11.1965 3.375 11.1965ZM6.0975 12H5.146C5.014 12 4.87 11.9275 4.87 11.752V9.4815C4.87 9.3375 5.014 9.2335 5.146 9.2335H6.0615C7.8885 9.2335 7.8485 12 6.0975 12ZM9.66 9.753H8.496V10.3885H9.5155C9.66 10.3885 9.8035 10.5325 9.8035 10.6725C9.8035 10.8045 9.66 10.912 9.5155 10.912H8.496V11.7515C8.496 11.8915 8.3965 11.9995 8.2565 11.9995C8.0805 11.9995 7.9725 11.8915 7.9725 11.7515V9.481C7.9725 9.337 8.081 9.233 8.2565 9.233H9.66C9.836 9.233 9.9395 9.337 9.9395 9.481C9.9395 9.6095 9.836 9.753 9.66 9.753Z" fill="#E29447"/>
</g>
<path id="Vector_4" d="M13.5 3.793L10.207 0.5C9.918 0.21 9.41 0 9 0H3.5C2.673 0 2 0.673 2 1.5V6.5C2 6.7765 2.2235 7 2.5 7C2.7765 7 3 6.7765 3 6.5V1.5C3 1.2245 3.224 1 3.5 1H8C8.5525 1 9 1.448 9 2V3.875C9 4.494 9.507 5 10.125 5H12C12.5525 5 13 5.448 13 6V14.5C13 14.7755 12.7765 15 12.5 15H3.5C3.224 15 3 14.7755 3 14.5C3 14.2235 2.7765 14 2.5 14C2.2235 14 2 14.2235 2 14.5C2 15.327 2.673 16 3.5 16H12.5C13.327 16 14 15.327 14 14.5V5C14 4.5905 13.79 4.0825 13.5 3.793Z" fill="#EEDBC7"/>
</g>
</g>
</svg>
